<svg id="Capa_1" enable-background="new 0 0 512.005 512.005" height="512" viewBox="0 0 512.005 512.005" width="512" xmlns="http://www.w3.org/2000/svg"><g><path d="m284.737 67.97c10.236 11.122 25.971 15.338 40.397 10.824 21.801-6.822 44.777 6.443 49.77 28.734 3.303 14.75 14.822 26.269 29.573 29.573 22.291 4.992 35.556 27.969 28.734 49.77-4.514 14.426-.298 30.161 10.824 40.397 16.809 15.469 16.809 42 0 57.469-11.122 10.236-15.338 25.971-10.824 40.397 6.822 21.801-6.443 44.777-28.734 49.77-14.75 3.303-26.269 14.822-29.573 29.573-4.992 22.291-27.969 35.556-49.77 28.734-14.426-4.514-30.161-.298-40.397 10.824-15.469 16.809-42 16.809-57.469 0-10.236-11.122-25.971-15.338-40.397-10.824-21.801 6.822-44.777-6.443-49.77-28.734-3.303-14.75-14.822-26.269-29.573-29.573-22.291-4.992-35.557-27.969-28.734-49.77 4.514-14.426.298-30.161-10.824-40.397-16.809-15.469-16.809-42 0-57.469 11.122-10.236 15.338-25.971 10.824-40.397-6.822-21.801 6.443-44.777 28.734-49.77 14.75-3.303 26.269-14.822 29.573-29.573 4.992-22.291 27.969-35.557 49.77-28.734 14.426 4.514 30.161.298 40.397-10.824 15.469-16.808 42-16.808 57.469 0z" fill="#0593fc"/><g><path d="m444.035 227.268c-11.122-10.236-15.339-25.971-10.824-40.397 6.822-21.801-6.443-44.777-28.734-49.77-14.75-3.303-26.269-14.822-29.573-29.573-4.771-21.3-25.961-34.345-46.857-29.512 14.083 3.281 25.882 14.288 29.291 29.512 3.304 14.75 14.823 26.269 29.573 29.573 22.291 4.992 35.557 27.969 28.734 49.77-4.514 14.426-.298 30.161 10.824 40.397 16.809 15.469 16.809 42 0 57.469-11.122 10.236-15.338 25.971-10.824 40.397 6.822 21.801-6.443 44.777-28.734 49.77-14.75 3.303-26.269 14.822-29.573 29.573-3.41 15.224-15.209 26.232-29.291 29.512 20.896 4.833 42.086-8.212 46.857-29.512 3.303-14.75 14.822-26.269 29.573-29.573 22.291-4.992 35.557-27.969 28.734-49.77-4.514-14.426-.298-30.161 10.824-40.397 16.808-15.469 16.808-42 0-57.469z" fill="#0181fa"/></g><circle cx="256.002" cy="256.003" fill="#ffd15b" r="156.549"/><path d="m256.002 99.453c-3.964 0-7.893.15-11.783.44 80.956 6.024 144.767 73.614 144.767 156.109s-63.81 150.086-144.766 156.11c3.89.289 7.819.44 11.783.44 86.46 0 156.549-70.09 156.549-156.549s-70.09-156.55-156.55-156.55z" fill="#feb137"/><path d="m225.632 257.646-25.629-25.629c-6.145-6.145-16.108-6.145-22.252 0l-20.882 20.882c-6.145 6.145-6.145 16.108 0 22.252l51.574 51.574 5.587 3.382 23.797-.95 111.868-112.754-12.295-22.431-24.871-9.573-3.738 2.794-70.452 70.452c-3.51 3.509-9.198 3.509-12.707.001z" fill="#eaf6ff"/><path d="m355.136 201.782-19.341-19.341c-6.145-6.145-16.108-6.145-22.252 0l-4.752 4.752c4.562-.482 9.293 1.018 12.79 4.514l9.99 10.075c6.145 6.145 6.145 16.108 0 22.252l-95.196 95.482c-7.563 7.563-18.331 9.963-27.931 7.208l1.926 1.926c11.088 11.088 29.064 11.088 40.152 0l104.615-104.615c6.144-6.145 6.144-16.108-.001-22.253z" fill="#c8effe"/><g><g><g><g><path d="m439.687 77.735c-1.919 0-3.839-.732-5.303-2.197-2.929-2.929-2.929-7.678 0-10.606l62.732-62.732c2.929-2.929 7.678-2.929 10.606 0 2.929 2.929 2.929 7.678 0 10.606l-62.732 62.732c-1.464 1.464-3.384 2.197-5.303 2.197z" fill="#feb137"/></g><g><path d="m471.049 123.037c-3.298 0-6.321-2.192-7.231-5.528-1.09-3.996 1.265-8.12 5.261-9.209l31.366-8.557c3.998-1.091 8.12 1.265 9.209 5.261 1.09 3.996-1.265 8.12-5.261 9.209l-31.366 8.557c-.66.181-1.325.267-1.978.267z" fill="#ffd15b"/></g><g><path d="m393.721 46.371c-.654 0-1.317-.086-1.979-.267-3.996-1.09-6.352-5.213-5.261-9.209l8.557-31.366c1.09-3.996 5.214-6.354 9.209-5.261 3.996 1.09 6.352 5.213 5.261 9.209l-8.557 31.366c-.909 3.335-3.932 5.528-7.23 5.528z" fill="#ffd15b"/></g></g><g><g><path d="m72.318 77.735c-1.919 0-3.839-.732-5.303-2.197l-62.732-62.732c-2.929-2.929-2.929-7.678 0-10.606 2.929-2.929 7.678-2.929 10.606 0l62.732 62.732c2.929 2.929 2.929 7.678 0 10.606-1.464 1.464-3.384 2.197-5.303 2.197z" fill="#feb137"/></g><g><path d="m40.956 123.037c-.654 0-1.317-.086-1.979-.267l-31.366-8.557c-3.996-1.09-6.352-5.213-5.261-9.209 1.09-3.996 5.213-6.354 9.209-5.261l31.366 8.557c3.996 1.09 6.352 5.213 5.261 9.209-.909 3.336-3.932 5.528-7.23 5.528z" fill="#ffd15b"/></g><g><path d="m118.284 46.371c-3.298 0-6.321-2.193-7.231-5.528l-8.557-31.366c-1.09-3.996 1.265-8.12 5.261-9.209 4-1.092 8.12 1.266 9.209 5.261l8.557 31.366c1.09 3.996-1.265 8.12-5.261 9.209-.661.181-1.325.267-1.978.267z" fill="#ffd15b"/></g></g></g><g><g><g><path d="m502.419 512.003c-1.919 0-3.839-.732-5.303-2.197l-62.732-62.732c-2.929-2.929-2.929-7.678 0-10.606 2.929-2.929 7.678-2.929 10.606 0l62.732 62.732c2.929 2.929 2.929 7.678 0 10.606-1.464 1.464-3.384 2.197-5.303 2.197z" fill="#feb137"/></g><g><path d="m502.423 412.529c-.654 0-1.317-.086-1.979-.267l-31.366-8.557c-3.996-1.09-6.352-5.213-5.261-9.209s5.212-6.353 9.209-5.261l31.366 8.557c3.996 1.09 6.352 5.213 5.261 9.209-.908 3.335-3.931 5.528-7.23 5.528z" fill="#ffd15b"/></g><g><path d="m402.269 512.005c-3.298 0-6.321-2.193-7.231-5.528l-8.557-31.366c-1.09-3.996 1.265-8.12 5.261-9.209 3.997-1.091 8.12 1.266 9.209 5.261l8.557 31.366c1.09 3.996-1.265 8.12-5.261 9.209-.66.181-1.324.267-1.978.267z" fill="#ffd15b"/></g></g><g><g><path d="m9.586 512.003c-1.919 0-3.839-.732-5.303-2.197-2.929-2.929-2.929-7.678 0-10.606l62.732-62.732c2.929-2.929 7.678-2.929 10.606 0 2.929 2.929 2.929 7.678 0 10.606l-62.732 62.732c-1.464 1.464-3.384 2.197-5.303 2.197z" fill="#feb137"/></g><g><path d="m9.581 412.529c-3.298 0-6.321-2.192-7.231-5.528-1.09-3.996 1.265-8.12 5.261-9.209l31.366-8.557c3.998-1.092 8.12 1.266 9.209 5.261 1.09 3.996-1.265 8.12-5.261 9.209l-31.366 8.557c-.66.181-1.324.267-1.978.267z" fill="#ffd15b"/></g><g><path d="m109.735 512.005c-.654 0-1.317-.086-1.979-.267-3.996-1.09-6.352-5.213-5.261-9.209l8.557-31.366c1.09-3.996 5.213-6.352 9.209-5.261 3.996 1.09 6.352 5.213 5.261 9.209l-8.557 31.366c-.908 3.335-3.931 5.528-7.23 5.528z" fill="#ffd15b"/></g></g></g></g></g></svg>