<svg width="179" height="178" viewBox="0 0 179 178" fill="none" xmlns="http://www.w3.org/2000/svg">
<g clip-path="url(#clip0)">
<path d="M89.7082 175.205C137.371 175.205 176.008 136.567 176.008 88.9049C176.008 41.2425 137.371 2.60461 89.7082 2.60461C42.0459 2.60461 3.40796 41.2425 3.40796 88.9049C3.40796 136.567 42.0459 175.205 89.7082 175.205Z" fill="#FF507D"/>
<path d="M126.74 84.6958L71.2281 54.4167C68.0331 52.674 64.1379 54.9866 64.1379 58.6258V119.184C64.1379 122.823 68.0334 125.136 71.2281 123.393L126.74 93.1139C130.071 91.2966 130.071 86.5128 126.74 84.6958Z" fill="white"/>
<path d="M104.814 152.532C63.1898 149.12 29.4931 115.423 26.0807 73.7987C25.407 65.5826 25.888 57.585 27.3768 49.9478C28.7774 42.7632 18.8978 39.0365 15.1965 45.3515C6.65116 59.9309 2.26357 77.2413 3.66556 95.6602C6.86405 137.681 40.9327 171.749 82.9531 174.948C101.372 176.35 118.682 171.962 133.262 163.417C139.577 159.715 135.85 149.836 128.665 151.237C121.028 152.725 113.03 153.206 104.814 152.532Z" fill="#D23C69"/>
<path d="M76.7899 95.9158V57.4502L71.2281 54.4167C68.0331 52.674 64.1379 54.9866 64.1379 58.6258V119.184C64.1379 122.823 68.0334 125.136 71.2281 123.393L126.74 93.1139C128.412 92.202 129.242 90.543 129.236 88.8868L85.0049 102.043C80.9066 103.262 76.7899 100.192 76.7899 95.9158Z" fill="#E4EAF8"/>
<path d="M152.573 26.0398C135.781 9.24784 113.455 0 89.7078 0C65.9605 0 43.6346 9.24784 26.8424 26.0398C10.0508 42.8317 0.802979 65.1575 0.802979 88.9049C0.802979 112.652 10.0508 134.978 26.8424 151.77C43.6346 168.562 65.9605 177.81 89.7078 177.81C113.455 177.81 135.781 168.562 152.573 151.77C169.365 134.978 178.613 112.652 178.613 88.9049C178.613 65.1575 169.365 42.8317 152.573 26.0398ZM148.89 148.087C133.082 163.895 112.064 172.6 89.7078 172.6C67.3517 172.6 46.3341 163.895 30.526 148.087C14.718 132.279 6.01225 111.261 6.01225 88.9049C6.01225 66.5488 14.718 45.5311 30.526 29.7231C46.3341 13.915 67.3517 5.20927 89.7078 5.20927C112.064 5.20927 133.082 13.915 148.89 29.7231C164.698 45.5311 173.403 66.5488 173.403 88.9049C173.403 111.261 164.698 132.279 148.89 148.087Z" fill="black"/>
<path d="M130.559 83.8123L124.441 80.4749C123.178 79.7859 121.596 80.2516 120.907 81.5143C120.218 82.7771 120.683 84.3593 121.946 85.0483L128.065 88.3857C128.32 88.5246 128.373 88.7448 128.373 88.9052C128.373 89.0657 128.32 89.2855 128.065 89.4248L67.6176 122.396C67.3731 122.529 67.1644 122.464 67.0321 122.385C66.9001 122.307 66.7425 122.155 66.7425 121.876V55.9337C66.7425 55.6552 66.9001 55.5034 67.0321 55.4249C67.1644 55.3464 67.3735 55.2811 67.6176 55.4142L110.828 78.9837C112.092 79.6727 113.673 79.207 114.362 77.9442C115.051 76.6815 114.585 75.0993 113.322 74.4103L70.1118 50.8408C68.2962 49.8503 66.1507 49.8895 64.373 50.9453C62.5945 52.001 61.5332 53.8656 61.5332 55.9337V121.876C61.5332 123.944 62.5949 125.809 64.373 126.864C65.2933 127.411 66.3118 127.685 67.3322 127.685C68.2834 127.685 69.2363 127.447 70.1118 126.969L130.559 93.9975C132.424 92.9803 133.583 91.0289 133.583 88.9049C133.583 86.7809 132.424 84.8295 130.559 83.8123Z" fill="black"/>
<path d="M105.128 19.6751C107.199 20.1342 109.274 20.6943 111.296 21.3396C111.559 21.4236 111.826 21.4636 112.088 21.4636C113.191 21.4636 114.216 20.7572 114.569 19.6504C115.007 18.28 114.251 16.8145 112.88 16.3769C110.709 15.6841 108.48 15.0826 106.255 14.5891C104.851 14.2776 103.46 15.1638 103.149 16.5683C102.838 17.9727 103.723 19.3639 105.128 19.6751Z" fill="black"/>
<path d="M61.9607 154.182C46.1527 147.453 33.3233 135.223 25.8355 119.742C25.209 118.447 23.6514 117.906 22.3564 118.532C21.0614 119.158 20.5196 120.716 21.1461 122.011C29.183 138.626 42.9532 151.753 59.9204 158.975C60.2531 159.116 60.599 159.184 60.9394 159.184C61.9524 159.184 62.9154 158.589 63.337 157.598C63.9007 156.275 63.2842 154.745 61.9607 154.182Z" fill="black"/>
<path d="M158.273 55.8048C151.402 41.5974 139.982 29.6063 126.116 22.0408C124.853 21.3514 123.271 21.8168 122.582 23.0795C121.893 24.3422 122.358 25.9244 123.621 26.6134C136.541 33.6626 147.182 44.8351 153.583 58.0726C154.033 59.0023 154.962 59.5437 155.93 59.5437C156.31 59.5437 156.697 59.46 157.062 59.2832C158.357 58.6574 158.899 57.0998 158.273 55.8048Z" fill="black"/>
</g>
<defs>
<clipPath id="clip0">
<rect width="177.81" height="177.81" fill="white" transform="translate(0.802979)"/>
</clipPath>
</defs>
</svg>
