<svg width="81" height="77" viewBox="0 0 81 77" fill="none" xmlns="http://www.w3.org/2000/svg">
<path d="M13.8886 67.1231L13.8886 67.1232C22.6218 74.3014 34.5428 76.5542 45.7846 74.6864C57.0269 72.8185 67.7219 66.8089 73.997 57.2841C81.5585 45.8129 81.0173 31.8206 77.6121 20.775C75.9064 15.2419 73.4655 10.3879 70.8987 6.88751C69.6162 5.13857 68.2829 3.70105 66.97 2.68658C65.6737 1.68492 64.3017 1.02242 62.9598 1.00055L62.9597 1.00055C60.7879 0.965261 59.2471 2.58438 58.0488 4.44329C57.0784 5.94862 56.171 7.87348 55.2447 9.83855C55.0058 10.3452 54.7657 10.8546 54.5229 11.3601C53.3137 13.8782 52.0122 16.365 50.385 18.3332C48.7685 20.2882 46.8849 21.6656 44.5182 22.0782L44.5182 22.0782C41.8102 22.5503 39.246 21.6217 36.7074 19.8231C34.1562 18.0157 31.7425 15.4087 29.3721 12.7109C29.0098 12.2986 28.648 11.8835 28.2867 11.469C26.3208 9.21329 24.3716 6.97687 22.4594 5.32453C20.2203 3.38965 17.741 1.99413 15.0945 2.61875C13.5091 2.99294 11.9918 4.07049 10.607 5.55835C9.21145 7.05774 7.88345 9.04533 6.68692 11.3752C4.29317 16.0362 2.3714 22.1729 1.50271 28.8013C-0.229767 42.0208 2.20001 57.5142 13.8886 67.1231Z" fill="#FBC332" stroke="#FFFEFE" stroke-width="2"/>
</svg>
