<svg width="104" height="100" viewBox="0 0 104 100" fill="none" xmlns="http://www.w3.org/2000/svg">
<path d="M86.6735 28.0089L86.6735 28.0089C79.7786 18.3717 68.3177 12.8541 56.4226 11.6948C44.5271 10.5354 32.0645 13.7206 23.1262 21.6627C12.3577 31.2262 9.1067 45.5438 9.55807 57.6603C9.78416 63.7293 10.9394 69.3087 12.5888 73.5495C13.4129 75.6684 14.3722 77.4838 15.4241 78.8643C16.4634 80.2282 17.6665 81.2632 19.0064 81.6458L19.0065 81.6458C21.1719 82.2639 23.1557 81.0581 24.8743 79.5002C26.2645 78.24 27.7047 76.5382 29.1776 74.7977C29.5577 74.3484 29.9401 73.8967 30.3243 73.4492C32.2347 71.2244 34.2333 69.0523 36.4234 67.4949C38.5997 65.9474 40.8954 65.0565 43.4228 65.2826L43.4228 65.2826C46.3151 65.5412 48.6738 67.1899 50.7639 69.709C52.8638 72.2398 54.6051 75.5439 56.2756 78.9232C56.5311 79.4401 56.7854 79.9597 57.0392 80.4783C58.4198 83.2997 59.7867 86.0931 61.2745 88.2849C63.0177 90.8528 65.14 92.9227 67.9675 93.0076C69.6629 93.0585 71.4843 92.3835 73.2884 91.2538C75.1059 90.1157 76.989 88.4645 78.8331 86.4295C82.5224 82.3585 86.1354 76.6633 88.8151 70.1829C94.1603 57.2572 95.9004 40.9077 86.6735 28.0089Z" fill="#2A27C5" stroke="#FFFEFE" stroke-width="2"/>
</svg>
